# xmcd
#
# Track frame offsets: 
#        150
#        18467
#        37330
#        59217
#        88355
#        107245
#        126282
#        150430
#        168227
#        189322
#        208150
#        228887
#        248612
#        263785
#        283910
#        302277
#
# Disc length: 4286 seconds
#
# Revision: 1
# Processed by: cddbd v1.5.2PL0 Copyright (c) Steve Scherf et al.
# Submitted via: ExactAudioCopy v1.0b3
#
DISCID=e310bc10
DTITLE=施文彬 - 精選
DYEAR=2000
DGENRE=Pop
TTITLE0=愛愈深心愈凝
TTITLE1=再會啦心愛的無緣的人
TTITLE2=傷心歌傷心肝
TTITLE3=酒後的心聲
TTITLE4=抹當愛的人 (feat. 陳亞蘭)
TTITLE5=再會啦夢中見 (feat. 陳亞蘭)
TTITLE6=無情人有情天 (feat. 陳亞蘭)
TTITLE7=癡情男兒
TTITLE8=為啥人
TTITLE9=感情債
TTITLE10=深深愛你
TTITLE11=愛我的心有多深
TTITLE12=叫阮的名
TTITLE13=癡情會心疼
TTITLE14=想你到深更 (feat. 陳亞蘭)
TTITLE15=請問芳名
EXTD=
EXTT0=
EXTT1=
EXTT2=
EXTT3=
EXTT4=
EXTT5=
EXTT6=
EXTT7=
EXTT8=
EXTT9=
EXTT10=
EXTT11=
EXTT12=
EXTT13=
EXTT14=
EXTT15=
PLAYORDER=
